<svg id="Layer_1" data-name="Layer 1" xmlns="http://www.w3.org/2000/svg" viewBox="0 0 80 74.89"><defs><style>.cls-1{fill:#58595b;}</style></defs><title>Phone</title><path class="cls-1" d="M57.92,74.89a14.32,14.32,0,0,1-3.82-.46l-.5-.14C48.25,72.8,34,68.85,24.27,59.75,14.15,50.31,6.46,40.8,3.2,33.66-.5,25.57,0,20.66.1,19,.46,15.31,2,6.18,8.83,1.81A10.2,10.2,0,0,1,13.73,0l6.39.05A6.76,6.76,0,0,1,25,4c.71,1.61,5.64,13.17,6,14.07,1.37,3.23,1.14,6.09-.68,8.46C29.13,28,27,30.53,26,31.68a54.73,54.73,0,0,0,8.93,10.9,44.42,44.42,0,0,0,13,8.09l.45.12.29-.4L49,50c1.18-1.53,4.85-6.15,4.85-6.15a6.16,6.16,0,0,1,4.93-2.41,7.22,7.22,0,0,1,3,.68C64,43.16,74.11,48.06,76,49a5.43,5.43,0,0,1,3.83,5l0,.51a16.31,16.31,0,0,1-4.25,13.29C71.32,72.44,63.46,74.89,57.92,74.89ZM13.73,7a8.29,8.29,0,0,1-1.15.72c-4.33,2.77-5.32,9.88-5.52,12C7,20.84,6.63,24.36,9.55,30.75,12.41,37,19.7,45.93,29,54.64c8.52,7.94,21.53,11.55,26.43,12.91l.51.14a7.24,7.24,0,0,0,1.93.21c3.88,0,9.8-1.86,12.59-4.88a9.22,9.22,0,0,0,2.43-7.77C71,54.32,61.49,49.71,59,48.56l-4.51,5.73c-1.47,2-3.92,4.61-8.75,3-3.8-1.26-10.32-4.92-15.46-9.53a62.09,62.09,0,0,1-10.6-13.06,5.7,5.7,0,0,1,.81-7.32s2.87-3.35,4.28-5.17c.15-.19.17-.52-.24-1.51S19.61,9.14,18.67,7H13.73Z"/></svg>